Coordinates
version=1
nRows=15
nColumns=63
inDegrees=yes

Units are S.I. units (second, meters, Newtons, ...)
If the header above contains a line with 'inDegrees', this indicates whether rotational values are in degrees (yes) or radians (no).

endheader
time	pelvis_tilt	pelvis_list	pelvis_rotation	pelvis_tx	pelvis_ty	pelvis_tz	hip_flexion_r	hip_adduction_r	hip_rotation_r	knee_angle_r	knee_angle_r_beta	ankle_angle_r	subtalar_angle_r	mtp_angle_r	hip_flexion_l	hip_adduction_l	hip_rotation_l	knee_angle_l	knee_angle_l_beta	ankle_angle_l	subtalar_angle_l	mtp_angle_l	L5_S1_Flex_Ext	L5_S1_Lat_Bending	L5_S1_axial_rotation	L4_L5_Flex_Ext	L4_L5_Lat_Bending	L4_L5_axial_rotation	L3_L4_Flex_Ext	L3_L4_Lat_Bending	L3_L4_axial_rotation	L2_L3_Flex_Ext	L2_L3_Lat_Bending	L2_L3_axial_rotation	L1_L2_Flex_Ext	L1_L2_Lat_Bending	L1_L2_axial_rotation	L1_T12_Flex_Ext	L1_T12_Lat_Bending	L1_T12_axial_rotation	Abs_r3	Abs_r2	Abs_r1	Abs_t1	Abs_t2	neck_flexion	neck_bending	neck_rotation	arm_flex_r	arm_add_r	arm_rot_r	elbow_flex_r	pro_sup_r	wrist_flex_r	wrist_dev_r	arm_flex_l	arm_add_l	arm_rot_l	elbow_flex_l	pro_sup_l	wrist_flex_l	wrist_dev_l
1.283333	1.917636	-3.116742	91.694220	0.255201	0.680240	0.896329	9.318659	4.087243	2.945075	18.397188	0.321092	29.623213	-8.397145	0.000000	4.898340	-2.688379	-18.892284	13.240861	0.231097	33.660101	11.604048	0.000000	-0.097814	0.474920	0.555626	-0.181650	0.631644	0.590352	-0.160699	1.154721	0.590352	-0.111792	1.154721	0.486172	-0.090830	0.968458	0.451446	-0.055891	0.735652	0.416719	-0.698676	5.372395	3.090223	0.000000	0.000000	0.081378	-1.344370	5.316293	22.266601	-6.709692	14.593040	78.744606	80.758240	-11.335152	4.967790	27.925581	-9.372910	25.658761	74.455743	67.135382	-2.110287	3.182313
1.300000	1.688422	-3.117974	91.049455	0.255594	0.680017	0.896341	9.400227	3.858814	3.228865	18.639723	0.325325	29.817398	-7.844980	0.000000	4.761389	-2.453402	-19.577981	13.122794	0.229036	33.740681	11.691041	0.000000	-0.094174	0.463006	0.674473	-0.174891	0.615798	0.716627	-0.154719	1.125753	0.716627	-0.107632	1.125753	0.590163	-0.087450	0.944162	0.548009	-0.053811	0.717196	0.505854	-0.672677	5.237616	3.751214	0.000000	0.000000	0.311833	-1.634987	4.884308	23.121840	-6.659883	14.098019	77.736484	79.505459	-11.478716	3.851677	28.676135	-8.944258	26.368681	73.899133	66.902627	-1.975087	2.910866
1.316667	1.445653	-3.115821	90.376015	0.255959	0.679812	0.896301	9.471756	3.612159	3.491565	18.880819	0.329532	30.015009	-7.208833	0.000000	4.623730	-2.196975	-20.238681	12.999423	0.226883	33.820094	11.700581	0.000000	-0.094257	0.451470	0.778585	-0.175044	0.600455	0.827247	-0.154854	1.097704	0.827247	-0.107726	1.097704	0.681262	-0.087527	0.920638	0.632600	-0.053858	0.699327	0.583939	-0.673267	5.107120	4.330257	0.000000	0.000000	0.558982	-1.947145	4.589499	24.040536	-6.652722	13.793983	76.659544	77.123495	-11.270812	2.460220	29.285832	-8.566862	27.043827	73.536213	66.336939	-2.159564	2.673379
1.333333	1.186433	-3.137176	89.694102	0.256317	0.679605	0.896147	9.547002	3.359613	3.845463	19.092759	0.333232	30.187083	-6.665397	0.000000	4.503606	-1.914451	-20.863090	12.854102	0.224346	33.892598	11.649447	0.000000	-0.093344	0.439254	0.873146	-0.173348	0.584208	0.927717	-0.153354	1.068003	0.927717	-0.106682	1.068003	0.764002	-0.086679	0.895728	0.709431	-0.053337	0.680405	0.654859	-0.666744	4.968934	4.856173	0.000000	0.000000	0.805700	-2.284060	4.416226	24.857762	-6.655063	13.431314	75.682554	74.890732	-10.880779	1.129175	29.761741	-8.216642	27.633507	73.289810	65.649439	-2.083181	2.609139
1.350000	0.931061	-3.195384	89.021669	0.256676	0.679386	0.895993	9.660984	3.121139	4.241467	19.291169	0.336694	30.325364	-6.186774	0.000000	4.441907	-1.637207	-21.444169	12.728298	0.222151	33.965688	11.540816	0.000000	-0.092357	0.427605	0.942239	-0.171517	0.568715	1.001129	-0.151734	1.039679	1.001129	-0.105555	1.039679	0.824459	-0.085763	0.871972	0.765569	-0.052773	0.662360	0.706679	-0.659700	4.837155	5.240450	0.000000	0.000000	1.064818	-2.637906	4.405619	25.611603	-6.659748	13.132646	74.748880	72.719607	-10.204713	-0.444737	30.054375	-7.914548	28.014943	73.245032	64.780990	-1.769327	2.951790
1.366667	0.692654	-3.272137	88.370759	0.257028	0.679185	0.895737	9.781413	2.911207	4.696507	19.451852	0.339499	30.441398	-5.800867	0.000000	4.396703	-1.374322	-21.999365	12.583585	0.219625	34.021198	11.419734	0.000000	-0.092400	0.417810	0.985663	-0.171596	0.555688	1.047267	-0.151804	1.015864	1.047267	-0.105604	1.015864	0.862455	-0.085803	0.851999	0.800851	-0.052797	0.647188	0.739247	-0.660003	4.726354	5.481962	0.000000	0.000000	1.305951	-2.991571	4.551364	26.255398	-6.716215	12.922497	73.984224	70.944319	-9.455519	-1.999602	30.186765	-7.682358	28.221721	73.377352	63.765483	-1.106611	3.659237
1.383333	0.482592	-3.367211	87.744802	0.257395	0.678999	0.895388	9.917125	2.743459	5.208639	19.584874	0.341821	30.543688	-5.509243	0.000000	4.375506	-1.139417	-22.501251	12.435559	0.217041	34.055298	11.249193	0.000000	-0.092398	0.410143	1.008876	-0.171593	0.545491	1.071930	-0.151801	0.997222	1.071930	-0.105602	0.997222	0.882766	-0.085801	0.836364	0.819711	-0.052796	0.635312	0.756657	-0.659992	4.639623	5.611063	0.000000	0.000000	1.519492	-3.335392	4.759916	26.762463	-6.828944	12.779570	73.396284	69.718351	-8.755505	-3.591742	30.230144	-7.512022	28.324640	73.592996	62.692677	-0.090043	4.524745
1.400000	0.303485	-3.461239	87.165450	0.257783	0.678851	0.894922	10.041255	2.618901	5.772147	19.678448	0.343454	30.627828	-5.333032	0.000000	4.349199	-0.933408	-22.953192	12.266026	0.214083	34.052787	11.070042	0.000000	-0.094193	0.404579	1.008581	-0.174926	0.538090	1.071617	-0.154750	0.983693	1.071617	-0.107653	0.983693	0.882509	-0.087468	0.825017	0.819472	-0.053822	0.626693	0.756436	-0.672813	4.576678	5.609426	0.000000	0.000000	1.706278	-3.668991	5.026616	27.143604	-6.957059	12.697326	72.976499	69.050331	-8.273424	-5.105518	30.219841	-7.405525	28.330686	73.841547	61.568159	1.268037	5.442604
1.416667	0.168945	-3.558711	86.665801	0.258155	0.678729	0.894325	10.152771	2.546531	6.352551	19.724741	0.344262	30.684572	-5.279182	0.000000	4.331575	-0.766657	-23.289540	12.086410	0.210948	34.008304	10.839836	0.000000	-0.094689	0.402776	0.980388	-0.175847	0.535691	1.041663	-0.155564	0.979308	1.041663	-0.108220	0.979308	0.857840	-0.087928	0.821340	0.796565	-0.054105	0.623899	0.735291	-0.676354	4.556278	5.452625	0.000000	0.000000	1.847707	-3.988007	5.349350	27.410526	-7.077162	12.627360	72.702148	68.797256	-7.850713	-6.364284	30.177723	-7.348677	28.270962	74.074949	60.539317	2.757816	6.196979
1.433333	0.054166	-3.634587	86.201118	0.258620	0.678665	0.893597	10.234036	2.506116	6.957546	19.754263	0.344777	30.725747	-5.321667	0.000000	4.282641	-0.618391	-23.556107	11.887706	0.207480	33.915863	10.555648	0.000000	-0.097514	0.400456	0.943401	-0.181093	0.532606	1.002363	-0.160206	0.973668	1.002363	-0.111449	0.973668	0.825476	-0.090552	0.816609	0.766513	-0.055720	0.620306	0.707551	-0.696533	4.530036	5.246913	0.000000	0.000000	1.950200	-4.291773	5.601588	27.551777	-7.196141	12.576844	72.577906	68.864191	-7.769060	-7.460480	30.187877	-7.332801	28.237404	74.192296	59.921190	4.305433	6.516205
1.450000	-0.044329	-3.691908	85.809787	0.259143	0.678658	0.892725	10.280806	2.488830	7.538966	19.763183	0.344933	30.744953	-5.459340	0.000000	4.215727	-0.487598	-23.729042	11.686144	0.203962	33.789259	10.237180	0.000000	-0.099996	0.397702	0.889217	-0.185703	0.528944	0.944793	-0.164284	0.966973	0.944793	-0.114286	0.966973	0.778065	-0.092856	0.810994	0.722489	-0.057138	0.616041	0.666912	-0.714263	4.498887	4.945556	0.000000	0.000000	1.977075	-4.579672	5.857065	27.585231	-7.320775	12.558542	72.608345	69.188112	-7.887003	-8.221018	30.245761	-7.356718	28.211908	74.187993	59.693775	5.878150	6.416790
1.466667	-0.106059	-3.719325	85.515056	0.259691	0.678735	0.891663	10.258709	2.509110	8.067892	19.721311	0.344202	30.716685	-5.710079	0.000000	4.106706	-0.383262	-23.763383	11.455081	0.199929	33.635703	9.870249	0.000000	-0.101687	0.396422	0.815640	-0.188843	0.527241	0.866617	-0.167062	0.963861	0.866617	-0.116218	0.963861	0.713685	-0.094427	0.808384	0.662707	-0.058104	0.614058	0.611730	-0.726341	4.484406	4.536344	0.000000	0.000000	1.910061	-4.820556	6.112247	27.502638	-7.459160	12.552372	72.805242	69.854532	-8.164382	-8.581014	30.344838	-7.400437	28.180321	74.063969	59.977483	7.386651	5.941317
1.483333	-0.157945	-3.698169	85.249034	0.260359	0.678915	0.890416	10.163293	2.527471	8.467408	19.664547	0.343211	30.697702	-5.874765	0.000000	3.923198	-0.284847	-23.780691	11.190255	0.195307	33.472909	9.525883	0.000000	-0.105382	0.392140	0.745881	-0.195704	0.521546	0.792499	-0.173132	0.953448	0.792499	-0.120441	0.953448	0.652646	-0.097857	0.799651	0.606028	-0.060215	0.607424	0.559411	-0.752731	4.435961	4.148367	0.000000	0.000000	1.746909	-4.989948	6.265390	27.287782	-7.658422	12.513143	73.221251	70.453160	-8.417708	-8.450688	30.531010	-7.462852	28.264620	73.852343	60.733534	8.562712	5.213886
1.500000	-0.194315	-3.656606	85.103996	0.261041	0.679154	0.888997	10.006613	2.551598	8.723663	19.559121	0.341371	30.662497	-6.076168	0.000000	3.716088	-0.198462	-23.662349	10.913517	0.190477	33.324874	9.183691	0.000000	-0.104847	0.385855	0.661426	-0.194712	0.513187	0.702765	-0.172253	0.938168	0.702765	-0.119830	0.938168	0.578748	-0.097361	0.786836	0.537409	-0.059910	0.597690	0.496070	-0.748913	4.364870	3.678653	0.000000	0.000000	1.488226	-5.087167	6.396045	26.976320	-7.894001	12.486815	73.797190	71.303695	-8.817639	-7.928519	30.781727	-7.505810	28.366183	73.499739	62.066121	9.553716	4.177333
1.516667	-0.229407	-3.569721	84.952249	0.261866	0.679468	0.887463	9.788278	2.569333	8.890878	19.447264	0.339419	30.639286	-6.193755	0.000000	3.438437	-0.107768	-23.553804	10.605773	0.185106	33.184888	8.851397	0.000000	-0.106193	0.376311	0.594972	-0.197211	0.500494	0.632158	-0.174465	0.914963	0.632158	-0.121368	0.914963	0.520600	-0.098611	0.767374	0.483415	-0.060679	0.582906	0.446229	-0.758527	4.256908	3.309055	0.000000	0.000000	1.166217	-5.128723	6.447882	26.592020	-8.182783	12.388146	74.514317	72.134530	-9.080668	-6.959150	31.153174	-7.515956	28.601969	73.058361	63.634483	10.062904	3.072722
